<svg xmlns="http://www.w3.org/2000/svg" width="1102" height="494" viewBox="44 44 1101.6 494.0"><path d="M70 70 L70 372 L200 512 L330 372 L330 70 L284 110 L284 340 L200 452 L116 340 L116 110 Z M177 128 L223 128 L223 322 L177 322 Z" fill="#F4F7FB"></path><path d="M450.00,183.00 L450.00,321.24 A73.44 73.44 0 0 0 596.88,321.24 L596.88,183.00 M661.68,183.00 L661.68,399.00 M661.68,183.00 L739.44,183.00 A54.00 54.00 0 0 1 739.44,291.00 L661.68,291.00 M726.48,291.00 L791.28,399.00 M856.08,183.00 L856.08,399.00 M920.88,399.00 L920.88,183.00 L1020.24,338.52 L1119.60,183.00 L1119.60,399.00" fill="none" stroke="#F4F7FB" stroke-width="19.01" stroke-linecap="butt" stroke-linejoin="round"></path></svg>