<svg xmlns="http://www.w3.org/2000/svg" width="517" height="724" viewBox="-58.5 44 517.0 724.0"><path d="M70 70 L70 372 L200 512 L330 372 L330 70 L284 110 L284 340 L200 452 L116 340 L116 110 Z M177 128 L223 128 L223 322 L177 322 Z" fill="#F4F7FB"></path><path d="M-32.50,592.00 L-32.50,688.00 A51.00 51.00 0 0 0 69.50,688.00 L69.50,592.00 M114.50,592.00 L114.50,742.00 M114.50,592.00 L168.50,592.00 A37.50 37.50 0 0 1 168.50,667.00 L114.50,667.00 M159.50,667.00 L204.50,742.00 M249.50,592.00 L249.50,742.00 M294.50,742.00 L294.50,592.00 L363.50,700.00 L432.50,592.00 L432.50,742.00" fill="none" stroke="#F4F7FB" stroke-width="13.20" stroke-linecap="butt" stroke-linejoin="round"></path></svg>